<?xml version="1.0" encoding="iso-8859-1"?>
<!-- Generator: Adobe Illustrator 18.1.1, SVG Export Plug-In . SVG Version: 6.00 Build 0)  -->
<svg version="1.1" id="Capa_1" xmlns="http://www.w3.org/2000/svg" xmlns:xlink="http://www.w3.org/1999/xlink" x="0px" y="0px"
	 viewBox="0 0 23.304 23.304" style="enable-background:new 0 0 23.304 23.304;" xml:space="preserve">
<g>
	<path style="fill:#010002;" d="M1.89,0v23.304h19.525V0H1.89z M20.182,1.231c0,1.131,0,19.709,0,20.84c-1.11,0-15.949,0-17.06,0
		c0-1.131,0-19.709,0-20.84C4.234,1.231,19.072,1.231,20.182,1.231z"/>
	<path style="fill:#010002;" d="M4.932,17.191h13.672v1.233H4.932L4.932,17.191z"/>
	<path style="fill:#010002;" d="M4.932,2.867h13.672v1.852H4.932L4.932,2.867z"/>
	<path style="fill:#010002;" d="M4.932,19.693h13.672v1.235H4.932L4.932,19.693z"/>
	<path style="fill:#010002;" d="M4.875,16.037h3.303V5.948H4.875C4.875,5.948,4.875,16.037,4.875,16.037z M9.831,16.037h3.3V8.812
		h-3.3V16.037z M14.51,11.802v4.235h3.304v-4.235H14.51z"/>
</g>
<g>
</g>
<g>
</g>
<g>
</g>
<g>
</g>
<g>
</g>
<g>
</g>
<g>
</g>
<g>
</g>
<g>
</g>
<g>
</g>
<g>
</g>
<g>
</g>
<g>
</g>
<g>
</g>
<g>
</g>
</svg>
